# xmcd CD database file generated by freedbAccess_ocx
#
# Track frame offsets:
#       150
#       22502
#       38745
#       60578
#       75303
#       101480
#       109957
#       134024
#       156761
#       169518
#       198700
#       209034
#       223015
#       248563
#       269768
#       298672
#       312712
#
# Disc length: 4466 seconds
#
# Revision: 0
# Processed by: cddbd v1.4PL0 Copyright (c) Steve Scherf et al.
# Submitted via: CDnGo 2.00
#
DISCID=fb117011
DTITLE=Dulce Pontes - O Primeiro Canto and Bonus CD
DYEAR=2000
DGENRE=Jazz
TTITLE0=Alma Guerreira (Fogo)
TTITLE1=Fado-Mãe
TTITLE2=Tirioni
TTITLE3=O Primeiro Canto (Dedicado A José Afonso)
TTITLE4=O Que For, Há-De Ser (Ar)
TTITLE5=Modinha Das Saias (Com Maria João and Gemma Bertagnolli)
TTITLE6=Garça Perdida
TTITLE7=Velha Chica (Com Waldemar Bastos)
TTITLE8=Ai Solidom
TTITLE9=Suite Da Terra
TTITLE10=É Tão Grande O Alentejo
TTITLE11=Pátio Dos Amores
TTITLE12=Porto De Mágoas
TTITLE13=Ondeia (Água)
TTITLE14=Balada Para Un Loco
TTITLE15=Patio De Los Amores (Spanish Version)
TTITLE16=A Minha Barquinha
EXTD=
EXTT0=
EXTT1=
EXTT2=
EXTT3=
EXTT4=
EXTT5=
EXTT6=
EXTT7=
EXTT8=
EXTT9=
EXTT10=
EXTT11=
EXTT12=
EXTT13=
EXTT14=
EXTT15=
EXTT16=
PLAYORDER=
